<svg xmlns="http://www.w3.org/2000/svg" xmlns:xlink="http://www.w3.org/1999/xlink" width="500" zoomAndPan="magnify" viewBox="0 0 375 374.999991" height="500" preserveAspectRatio="xMidYMid meet" version="1.0"><defs><g/><clipPath id="35740c03c4"><path d="M 150 184 L 163 184 L 163 196 L 150 196 Z M 150 184 " clip-rule="nonzero"/></clipPath><clipPath id="a2a96394ff"><path d="M 150.808594 190.335938 L 155.480469 184.398438 L 162.507812 189.933594 L 157.832031 195.867188 Z M 150.808594 190.335938 " clip-rule="nonzero"/></clipPath><clipPath id="7a1508bf7b"><path d="M 150.808594 190.335938 L 155.480469 184.398438 L 162.5 189.929688 L 157.828125 195.863281 Z M 150.808594 190.335938 " clip-rule="nonzero"/></clipPath></defs><g fill="#4285f4" fill-opacity="1"><g transform="translate(80.018993, 196.380162)"><g><path d="M 4.265625 0 L 4.265625 -36.765625 L 14.640625 -36.765625 C 17.835938 -36.765625 20.664062 -36.054688 23.125 -34.640625 C 25.582031 -33.234375 27.476562 -31.222656 28.8125 -28.609375 C 30.15625 -26.003906 30.835938 -23.007812 30.859375 -19.625 L 30.859375 -17.265625 C 30.859375 -13.804688 30.1875 -10.769531 28.84375 -8.15625 C 27.507812 -5.550781 25.597656 -3.546875 23.109375 -2.140625 C 20.628906 -0.742188 17.738281 -0.03125 14.4375 0 Z M 9.109375 -32.78125 L 9.109375 -3.96875 L 14.21875 -3.96875 C 17.957031 -3.96875 20.863281 -5.128906 22.9375 -7.453125 C 25.019531 -9.773438 26.0625 -13.082031 26.0625 -17.375 L 26.0625 -19.515625 C 26.0625 -23.691406 25.078125 -26.9375 23.109375 -29.25 C 21.148438 -31.570312 18.367188 -32.75 14.765625 -32.78125 Z M 9.109375 -32.78125 "/></g></g></g><g fill="#ea4335" fill-opacity="1"><g transform="translate(113.933054, 196.380162)"><g><path d="M 8.609375 0 L 3.9375 0 L 3.9375 -27.328125 L 8.609375 -27.328125 Z M 3.5625 -34.578125 C 3.5625 -35.328125 3.789062 -35.960938 4.25 -36.484375 C 4.71875 -37.015625 5.40625 -37.28125 6.3125 -37.28125 C 7.21875 -37.28125 7.90625 -37.015625 8.375 -36.484375 C 8.851562 -35.960938 9.09375 -35.320312 9.09375 -34.5625 C 9.09375 -33.8125 8.851562 -33.179688 8.375 -32.671875 C 7.90625 -32.171875 7.21875 -31.921875 6.3125 -31.921875 C 5.40625 -31.921875 4.71875 -32.171875 4.25 -32.671875 C 3.789062 -33.179688 3.5625 -33.816406 3.5625 -34.578125 Z M 3.5625 -34.578125 "/></g></g></g><g fill="#ea4335" fill-opacity="1"><g transform="translate(126.483834, 196.380162)"><g/></g></g><g fill="#ea4335" fill-opacity="1"><g transform="translate(139.286293, 196.380162)"><g/></g></g><g fill="#ea4335" fill-opacity="1"><g transform="translate(152.088751, 196.380162)"><g/></g></g><g fill="#4285f4" fill-opacity="1"><g transform="translate(164.897894, 196.380162)"><g><path d="M 2.421875 -13.890625 C 2.421875 -18.148438 3.40625 -21.535156 5.375 -24.046875 C 7.34375 -26.566406 9.953125 -27.828125 13.203125 -27.828125 C 16.535156 -27.828125 19.140625 -26.648438 21.015625 -24.296875 L 21.234375 -27.328125 L 25.5 -27.328125 L 25.5 -0.65625 C 25.5 2.875 24.453125 5.660156 22.359375 7.703125 C 20.265625 9.742188 17.453125 10.765625 13.921875 10.765625 C 11.941406 10.765625 10.007812 10.34375 8.125 9.5 C 6.238281 8.65625 4.800781 7.5 3.8125 6.03125 L 6.234375 3.234375 C 8.242188 5.703125 10.695312 6.9375 13.59375 6.9375 C 15.863281 6.9375 17.632812 6.296875 18.90625 5.015625 C 20.175781 3.742188 20.8125 1.945312 20.8125 -0.375 L 20.8125 -2.734375 C 18.9375 -0.578125 16.382812 0.5 13.15625 0.5 C 9.957031 0.5 7.367188 -0.785156 5.390625 -3.359375 C 3.410156 -5.929688 2.421875 -9.441406 2.421875 -13.890625 Z M 7.125 -13.359375 C 7.125 -10.273438 7.753906 -7.851562 9.015625 -6.09375 C 10.273438 -4.332031 12.039062 -3.453125 14.3125 -3.453125 C 17.257812 -3.453125 19.425781 -4.789062 20.8125 -7.46875 L 20.8125 -19.953125 C 19.375 -22.554688 17.226562 -23.859375 14.375 -23.859375 C 12.09375 -23.859375 10.3125 -22.972656 9.03125 -21.203125 C 7.757812 -19.441406 7.125 -16.828125 7.125 -13.359375 Z M 7.125 -13.359375 "/></g></g></g><g fill="#34a853" fill-opacity="1"><g transform="translate(193.913517, 196.380162)"><g><path d="M 2.296875 -13.921875 C 2.296875 -16.597656 2.820312 -19.003906 3.875 -21.140625 C 4.925781 -23.273438 6.390625 -24.921875 8.265625 -26.078125 C 10.148438 -27.242188 12.296875 -27.828125 14.703125 -27.828125 C 18.421875 -27.828125 21.425781 -26.539062 23.71875 -23.96875 C 26.019531 -21.394531 27.171875 -17.96875 27.171875 -13.6875 L 27.171875 -13.359375 C 27.171875 -10.703125 26.660156 -8.316406 25.640625 -6.203125 C 24.617188 -4.085938 23.160156 -2.441406 21.265625 -1.265625 C 19.378906 -0.0859375 17.207031 0.5 14.75 0.5 C 11.039062 0.5 8.035156 -0.785156 5.734375 -3.359375 C 3.441406 -5.929688 2.296875 -9.34375 2.296875 -13.59375 Z M 7 -13.359375 C 7 -10.328125 7.703125 -7.894531 9.109375 -6.0625 C 10.515625 -4.226562 12.394531 -3.3125 14.75 -3.3125 C 17.125 -3.3125 19.007812 -4.238281 20.40625 -6.09375 C 21.800781 -7.957031 22.5 -10.566406 22.5 -13.921875 C 22.5 -16.910156 21.785156 -19.332031 20.359375 -21.1875 C 18.941406 -23.050781 17.054688 -23.984375 14.703125 -23.984375 C 12.390625 -23.984375 10.523438 -23.066406 9.109375 -21.234375 C 7.703125 -19.398438 7 -16.773438 7 -13.359375 Z M 7 -13.359375 "/></g></g></g><g fill="#ff3131" fill-opacity="1"><g transform="translate(223.409613, 196.380162)"><g/></g></g><g fill="#ff3131" fill-opacity="1"><g transform="translate(236.212071, 196.380162)"><g><path d="M 10.53125 -36.765625 L 22.546875 -6.765625 L 34.578125 -36.765625 L 40.859375 -36.765625 L 40.859375 0 L 36.015625 0 L 36.015625 -14.3125 L 36.46875 -29.78125 L 24.390625 0 L 20.6875 0 L 8.640625 -29.703125 L 9.109375 -14.3125 L 9.109375 0 L 4.265625 0 L 4.265625 -36.765625 Z M 10.53125 -36.765625 "/></g></g></g><g fill="#ff3131" fill-opacity="1"><g transform="translate(281.361551, 196.380162)"><g><path d="M 3.640625 -2.453125 C 3.640625 -3.253906 3.878906 -3.925781 4.359375 -4.46875 C 4.835938 -5.007812 5.554688 -5.28125 6.515625 -5.28125 C 7.472656 -5.28125 8.195312 -5.007812 8.6875 -4.46875 C 9.1875 -3.925781 9.4375 -3.253906 9.4375 -2.453125 C 9.4375 -1.671875 9.1875 -1.019531 8.6875 -0.5 C 8.195312 0.0195312 7.472656 0.28125 6.515625 0.28125 C 5.554688 0.28125 4.835938 0.0195312 4.359375 -0.5 C 3.878906 -1.019531 3.640625 -1.671875 3.640625 -2.453125 Z M 3.640625 -2.453125 "/></g></g></g><g fill="#ffde59" fill-opacity="1"><g transform="translate(139.786961, 203.774183)"><g><path d="M 13.234375 -6.8125 C 9.992188 -5.007812 6.765625 -4.601562 3.546875 -5.59375 C 0.335938 -6.582031 -2.257812 -8.851562 -4.25 -12.40625 L -4.671875 -13.15625 C -5.992188 -15.519531 -6.71875 -17.882812 -6.84375 -20.25 C -6.976562 -22.613281 -6.53125 -24.773438 -5.5 -26.734375 C -4.46875 -28.691406 -3 -30.203125 -1.09375 -31.265625 C 2 -33.003906 4.972656 -33.332031 7.828125 -32.25 C 10.691406 -31.164062 13.191406 -28.71875 15.328125 -24.90625 L 16.265625 -23.21875 L 0.109375 -14.1875 C 1.484375 -11.863281 3.234375 -10.34375 5.359375 -9.625 C 7.484375 -8.914062 9.5625 -9.128906 11.59375 -10.265625 C 13.03125 -11.066406 14.082031 -12.039062 14.75 -13.1875 C 15.425781 -14.34375 15.863281 -15.613281 16.0625 -17 L 19.640625 -16.4375 C 19.367188 -12.257812 17.234375 -9.050781 13.234375 -6.8125 Z M 0.78125 -27.90625 C -0.863281 -26.988281 -1.910156 -25.617188 -2.359375 -23.796875 C -2.816406 -21.972656 -2.566406 -19.910156 -1.609375 -17.609375 L 10.328125 -24.28125 L 10.140625 -24.59375 C 8.867188 -26.601562 7.414062 -27.894531 5.78125 -28.46875 C 4.144531 -29.050781 2.476562 -28.863281 0.78125 -27.90625 Z M 0.78125 -27.90625 "/></g></g></g><g clip-path="url(#35740c03c4)"><g clip-path="url(#a2a96394ff)"><g clip-path="url(#7a1508bf7b)"><path fill="#ffffff" d="M 150.808594 190.335938 L 155.480469 184.398438 L 162.507812 189.933594 L 157.832031 195.867188 Z M 150.808594 190.335938 " fill-opacity="1" fill-rule="nonzero"/></g></g></g></svg>